<svg width="172" height="161" viewBox="0 0 172 161" fill="none" xmlns="http://www.w3.org/2000/svg">
<rect width="172" height="161" fill="white"/>
<g clip-path="url(#clip0)">
<path d="M109.938 48.3704C109.366 42.5938 104.957 38.2007 99.6748 38.145H99.6542C99.2834 38.146 98.9126 38.1687 98.5439 38.2128C96.2734 30.3432 88.6332 25.9882 81.4788 28.4858C77.2008 29.9793 73.8689 33.6998 72.5757 38.4277C71.8366 38.2463 71.0815 38.1553 70.3243 38.1563C64.5674 38.2169 59.9452 43.3997 60.0004 49.7324C60.051 55.5428 64.0448 60.3931 69.2962 61.0218V72.1832H100.703V61.0105C106.426 60.3252 110.561 54.6661 109.938 48.3704Z" fill="black"/>
<path d="M99.6748 74.4336H69.3067V80.0878C69.3067 80.7123 69.767 81.2186 70.3347 81.2186H99.6851C100.253 81.2186 100.713 80.7123 100.713 80.0878V74.4336H99.6748Z" fill="black"/>
</g>
<path d="M105.84 93.7012C104.75 89.7866 101.094 86.9429 96.8008 87.1183C93.237 87.266 90.1625 89.5557 88.8607 92.7225C87.8913 92.104 86.7372 91.7347 85.5 91.7347C84.2628 91.7347 83.118 92.0947 82.1485 92.7133C80.8098 89.4265 77.5784 87.0999 73.8207 87.0999C69.6937 87.0999 66.2222 89.8881 65.1604 93.6827C64.9943 94.2829 64.4403 94.6891 63.8217 94.6891H63V97.5051H63.8217C64.4403 97.5051 64.9943 97.9113 65.1604 98.5022C66.2499 102.417 69.906 105.261 74.1992 105.085C78.6678 104.9 82.3609 101.346 82.7671 96.9234C83.1918 95.834 84.2536 95.0492 85.5 95.0492C86.7279 95.0492 87.7805 95.8063 88.2144 96.8772C88.6114 101.475 92.4799 105.094 97.1793 105.094C101.306 105.094 104.778 102.306 105.84 98.5114C106.006 97.9113 106.56 97.5051 107.178 97.5051H108V94.6891H107.178C106.56 94.6983 106.006 94.2921 105.84 93.7012ZM73.8207 102.371C70.3677 102.371 67.5609 99.564 67.5609 96.1109C67.5609 92.6579 70.3677 89.8512 73.8207 89.8512C77.2737 89.8512 80.0804 92.6579 80.0804 96.1109C80.0804 99.564 77.2737 102.371 73.8207 102.371ZM97.1793 102.371C93.7263 102.371 90.9196 99.564 90.9196 96.1109C90.9196 92.6579 93.7263 89.8512 97.1793 89.8512C100.632 89.8512 103.439 92.6579 103.439 96.1109C103.439 99.564 100.632 102.371 97.1793 102.371ZM107.548 112.748C106.449 116.127 103.633 121.528 96.7177 121.879C91.215 122.156 87.4296 119.645 85.5 116.875C83.5704 119.645 79.7757 122.156 74.2823 121.879C67.367 121.528 64.5419 116.118 63.4524 112.748C63.3693 112.471 62.9723 111.059 64.1725 111.816C64.3018 111.917 64.4311 112.019 64.5788 112.111C65.2897 112.573 66.2499 112.942 67.5425 113.007C71.2817 113.191 74.5593 106.775 79.7942 107.033C81.133 107.098 82.9887 107.421 85.4908 109.914C87.9928 107.421 89.8394 107.098 91.1873 107.033C96.4222 106.775 99.6998 113.191 103.439 113.007C104.732 112.942 105.692 112.573 106.403 112.111C106.55 112.019 106.689 111.917 106.818 111.816C108.028 111.059 107.64 112.462 107.548 112.748Z" fill="black"/>
<defs>
<clipPath id="clip0">
<rect width="50" height="55" fill="white" transform="translate(60 27)"/>
</clipPath>
</defs>
</svg>
