<svg width="257" height="198" viewBox="0 0 257 198" fill="none" xmlns="http://www.w3.org/2000/svg">
<g clip-path="url(#clip0)">
<rect width="257" height="198" fill="transparent"/>
<path d="M64.1311 151.1C62.1311 151.1 60.4477 150.65 59.0811 149.75C57.7144 148.817 57.0311 147.65 57.0311 146.25C57.0311 144.483 58.1811 142.717 60.4811 140.95C60.8811 140.65 61.1811 140.5 61.3811 140.5C61.5811 140.5 61.6811 140.567 61.6811 140.7C61.6811 141.033 61.4144 141.3 60.8811 141.5C59.0144 143 58.0811 144.517 58.0811 146.05C58.0811 147.15 58.5811 148.083 59.5811 148.85C60.5811 149.583 61.8311 149.95 63.3311 149.95C66.5977 149.95 69.6811 148.383 72.5811 145.25C74.0811 143.617 74.8311 141.733 74.8311 139.6C74.8311 137.467 74.0311 135.883 72.4311 134.85C71.0977 133.917 69.2977 133.45 67.0311 133.45C63.7644 133.45 60.4811 134.267 57.1811 135.9C53.1144 137.867 49.4311 140.933 46.1311 145.1C42.8644 149.233 41.2311 153.217 41.2311 157.05C41.2311 160.083 42.2644 162.433 44.3311 164.1C46.3977 165.733 48.9644 166.55 52.0311 166.55C55.5311 166.55 58.9644 165.7 62.3311 164C64.8977 162.667 67.1144 160.967 68.9811 158.9C69.5144 158.3 69.9311 158 70.2311 158C70.4311 158 70.5311 158.183 70.5311 158.55C70.5311 158.883 70.3477 159.233 69.9811 159.6C68.2144 161.467 65.6644 163.267 62.3311 165C58.2311 167.167 54.0977 168.25 49.9311 168.25C45.7977 168.25 42.7144 166.883 40.6811 164.15C39.3144 162.35 38.6311 160.2 38.6311 157.7C38.6311 156.6 38.7644 155.417 39.0311 154.15C39.9311 149.883 42.2977 145.733 46.1311 141.7C48.8977 138.8 52.1811 136.55 55.9811 134.95C59.7811 133.317 63.3811 132.5 66.7811 132.5C68.5811 132.5 70.1477 132.717 71.4811 133.15C75.1144 134.283 76.9311 136.567 76.9311 140C76.9311 142.1 76.3144 143.917 75.0811 145.45C72.0144 149.217 68.3644 151.1 64.1311 151.1ZM90.0104 150.05L90.7104 149.9C91.077 149.9 91.427 150.05 91.7604 150.35C92.0937 150.65 92.2604 150.883 92.2604 151.05C92.2604 151.217 91.227 152.833 89.1604 155.9C87.0937 158.933 86.0604 161.05 86.0604 162.25C86.0604 162.35 86.077 162.45 86.1104 162.55C86.277 163.317 86.6437 163.7 87.2104 163.7C88.9437 163.7 92.1104 160.833 96.7104 155.1C96.8104 154.967 96.927 154.9 97.0604 154.9C97.1937 154.9 97.2604 155.033 97.2604 155.3C97.2604 155.533 97.1104 155.85 96.8104 156.25C92.5437 161.95 89.2937 164.8 87.0604 164.8C86.7604 164.8 86.477 164.75 86.2104 164.65C84.7437 164.083 84.0104 162.983 84.0104 161.35C84.0104 160.783 84.077 160.217 84.2104 159.65L81.1104 162.65C79.1437 164.383 77.7104 165.25 76.8104 165.25C75.9437 165.25 75.1104 164.967 74.3104 164.4C73.4104 163.733 72.9604 162.85 72.9604 161.75C72.9604 159.317 74.6604 156.417 78.0604 153.05C81.4604 149.65 84.577 147.95 87.4104 147.95C88.5104 147.95 89.2437 148.333 89.6104 149.1C89.7104 149.367 89.7937 149.6 89.8604 149.8C89.927 149.967 89.977 150.05 90.0104 150.05ZM75.0604 162.35C75.0604 163.55 75.477 164.15 76.3104 164.15C78.2437 164.15 80.877 162.033 84.2104 157.8L89.5104 150.5C89.2437 150.033 88.8104 149.8 88.2104 149.8C86.177 149.8 83.477 151.383 80.1104 154.55C76.7437 157.683 75.0604 160.283 75.0604 162.35ZM104.216 165.6C101.582 165.6 99.3492 163.517 97.5158 159.35C97.0492 160.05 95.9992 162.017 94.3658 165.25C93.1658 164.783 92.5658 164.15 92.5658 163.35C92.5658 161.917 94.7158 157.983 99.0158 151.55C103.316 145.117 106.266 141.333 107.866 140.2C107.999 140.1 108.266 140.05 108.666 140.05C109.699 140.05 110.216 140.317 110.216 140.85C110.216 141.117 109.049 142.617 106.716 145.35C104.416 148.083 103.132 149.733 102.866 150.3C105.899 148.733 108.316 147.95 110.116 147.95C111.149 147.95 112.032 148.367 112.766 149.2C113.466 149.9 113.816 150.617 113.816 151.35C113.816 151.45 113.816 151.55 113.816 151.65C113.549 153.55 112.216 155.117 109.816 156.35C107.882 157.383 106.082 157.9 104.416 157.9C102.749 157.9 101.582 157.683 100.916 157.25C100.716 157.217 100.549 157.267 100.416 157.4C100.316 157.533 100.299 157.7 100.366 157.9C101.299 162.033 102.849 164.1 105.016 164.1C106.149 164.1 107.599 163.467 109.366 162.2C111.166 160.933 113.032 159.15 114.966 156.85C115.199 156.617 115.399 156.5 115.566 156.5C115.766 156.5 115.866 156.6 115.866 156.8C115.866 156.967 115.749 157.217 115.516 157.55C113.716 159.75 112.016 161.483 110.416 162.75C107.982 164.65 105.916 165.6 104.216 165.6ZM111.416 150.3C111.416 150.033 111.266 149.767 110.966 149.5C110.666 149.233 110.349 149.1 110.016 149.1C108.216 149.1 106.049 149.85 103.516 151.35C101.016 152.85 99.4825 154.55 98.9158 156.45C99.2158 156.45 100.016 156.5 101.316 156.6C102.816 156.6 104.782 155.983 107.216 154.75C110.016 153.35 111.416 151.867 111.416 150.3ZM116.194 165.65C115.827 165.65 115.494 165.6 115.194 165.5C113.06 164.9 111.994 163.7 111.994 161.9C111.994 159.567 113.46 156.867 116.394 153.8C119.327 150.733 121.96 149.2 124.294 149.2C125.06 149.2 125.677 149.417 126.144 149.85C126.644 150.25 126.894 150.75 126.894 151.35C126.894 153.217 125.477 155 122.644 156.7C119.844 158.4 117.56 159.25 115.794 159.25C115.527 159.25 115.294 159.217 115.094 159.15C114.594 160.05 114.344 161 114.344 162C114.344 163.733 115.16 164.6 116.794 164.6C118.46 164.6 120.61 163.483 123.244 161.25C125.277 159.617 127.01 157.883 128.444 156.05C128.744 155.65 128.994 155.45 129.194 155.45C129.427 155.45 129.544 155.55 129.544 155.75C129.544 155.95 129.41 156.233 129.144 156.6C127.344 158.967 125.177 161.067 122.644 162.9C120.11 164.733 117.96 165.65 116.194 165.65ZM125.644 151.25C125.644 150.85 125.21 150.65 124.344 150.65C123.51 150.65 122.31 151.3 120.744 152.6C118.644 154.333 117.01 156.15 115.844 158.05C116.044 158.117 116.26 158.15 116.494 158.15C117.76 158.15 119.444 157.483 121.544 156.15C123.677 154.783 125.01 153.3 125.544 151.7C125.61 151.533 125.644 151.383 125.644 151.25ZM135.685 164.25C134.719 164.817 133.519 165.1 132.085 165.1C130.685 165.1 129.602 164.633 128.835 163.7C128.102 162.767 127.469 161.283 126.935 159.25C126.335 159.85 125.919 160.15 125.685 160.15C125.519 160.15 125.435 160.033 125.435 159.8C125.435 159.567 125.519 159.367 125.685 159.2C126.785 157.833 128.652 155.867 131.285 153.3L137.585 147.4C139.385 145.7 140.452 144.85 140.785 144.85C141.852 144.85 142.385 145.25 142.385 146.05C142.385 146.45 142.219 146.85 141.885 147.25C141.585 147.617 141.352 147.917 141.185 148.15C141.052 148.35 140.902 148.55 140.735 148.75C140.135 149.783 139.519 151.917 138.885 155.15C138.285 158.383 137.819 160.633 137.485 161.9C140.252 161.867 143.102 160.067 146.035 156.5C146.369 156.167 146.619 156 146.785 156C146.952 156 147.035 156.117 147.035 156.35C147.035 156.55 146.885 156.833 146.585 157.2C144.652 159.467 142.852 161.05 141.185 161.95C140.185 162.45 138.885 162.867 137.285 163.2L135.685 164.25ZM128.935 158.7C128.935 159.833 129.302 160.767 130.035 161.5C130.802 162.2 131.652 162.55 132.585 162.55C133.519 162.55 134.235 162.367 134.735 162C135.402 161.633 136.052 160.1 136.685 157.4C137.352 154.7 137.752 152.317 137.885 150.25L138.085 148.55C136.252 149.917 134.285 151.683 132.185 153.85C130.119 156.017 129.052 157.45 128.985 158.15C128.952 158.35 128.935 158.533 128.935 158.7ZM168.354 164.4C166.087 164.4 164.954 163.35 164.954 161.25C164.954 160.05 165.487 158.417 166.554 156.35C167.621 154.25 168.737 152.483 169.904 151.05C167.837 152.05 165.454 153.867 162.754 156.5C160.054 159.1 158.171 161.833 157.104 164.7C156.937 164.967 156.654 165.1 156.254 165.1C155.454 165.1 155.054 164.65 155.054 163.75C155.387 161.917 156.137 159.817 157.304 157.45C157.671 156.683 158.754 154.45 160.554 150.75C157.954 152.45 155.737 154.283 153.904 156.25C152.104 158.183 150.421 160.133 148.854 162.1C147.321 164.067 146.454 165.05 146.254 165.05C145.821 165.05 145.437 164.85 145.104 164.45C144.804 164.05 144.654 163.65 144.654 163.25C144.654 162.65 145.521 160.45 147.254 156.65L144.254 159.8C143.521 160.533 143.071 160.9 142.904 160.9C142.704 160.9 142.604 160.8 142.604 160.6C142.604 160.367 142.737 160.117 143.004 159.85C144.237 158.617 145.337 157.383 146.304 156.15C147.271 154.917 148.871 152.717 151.104 149.55C151.471 149.05 151.987 148.8 152.654 148.8C153.321 148.8 153.654 149.117 153.654 149.75C153.654 149.983 152.771 151.617 151.004 154.65C149.237 157.65 148.254 159.533 148.054 160.3C149.421 158.8 151.471 156.783 154.204 154.25C158.304 150.45 161.004 148.55 162.304 148.55C162.704 148.55 163.071 148.667 163.404 148.9C163.737 149.133 163.904 149.4 163.904 149.7C163.904 149.967 163.254 151.217 161.954 153.45C160.687 155.75 159.987 157.117 159.854 157.55C163.554 154.45 165.404 152.883 165.404 152.85C168.537 150.417 170.787 149.2 172.154 149.2C172.554 149.2 172.921 149.333 173.254 149.6C173.621 149.833 173.804 150.117 173.804 150.45C173.804 150.517 172.721 151.933 170.554 154.7C168.387 157.433 167.171 159.683 166.904 161.45C166.837 162.05 166.954 162.5 167.254 162.8C167.554 163.1 168.087 163.25 168.854 163.25C169.654 163.25 170.804 162.717 172.304 161.65C173.837 160.55 175.387 159.083 176.954 157.25C177.554 156.583 177.954 156.25 178.154 156.25C178.387 156.25 178.504 156.333 178.504 156.5C178.504 156.733 178.354 157 178.054 157.3C176.421 159.267 174.654 160.95 172.754 162.35C170.887 163.717 169.421 164.4 168.354 164.4ZM186.847 144.6C187.347 144.6 187.814 144.767 188.247 145.1C188.714 145.4 188.947 145.767 188.947 146.2C188.947 146.633 188.73 147.017 188.297 147.35C187.897 147.65 187.447 147.8 186.947 147.8C186.447 147.8 185.98 147.617 185.547 147.25C185.147 146.883 184.947 146.467 184.947 146C184.947 145.067 185.58 144.6 186.847 144.6ZM177.797 165.55C176.097 165.55 175.247 164.45 175.247 162.25C175.247 160.45 176.23 157.967 178.197 154.8C180.164 151.6 181.747 149.983 182.947 149.95C183.28 149.95 183.647 150.083 184.047 150.35C184.48 150.617 184.697 150.883 184.697 151.15C184.53 151.383 184.33 151.65 184.097 151.95C183.864 152.217 183.614 152.517 183.347 152.85C183.08 153.183 182.714 153.667 182.247 154.3C181.78 154.9 181.33 155.483 180.897 156.05C178.397 159.283 177.147 161.517 177.147 162.75C177.147 163.95 177.564 164.55 178.397 164.55C179.097 164.55 180.047 164.167 181.247 163.4C184.047 161.667 186.264 159.767 187.897 157.7C188.497 156.933 188.897 156.55 189.097 156.55C189.33 156.55 189.447 156.683 189.447 156.95C189.447 157.217 189.064 157.75 188.297 158.55C187.53 159.35 186.914 159.983 186.447 160.45C186.014 160.917 185.714 161.233 185.547 161.4C185.38 161.533 185.064 161.817 184.597 162.25C184.164 162.65 183.83 162.933 183.597 163.1C183.364 163.267 183.03 163.517 182.597 163.85C182.164 164.183 181.78 164.433 181.447 164.6C181.114 164.733 180.73 164.9 180.297 165.1C179.597 165.4 178.764 165.55 177.797 165.55ZM200.326 148.9L207.526 148.8C207.626 148.867 207.676 148.917 207.676 148.95C207.676 149.25 205.593 149.667 201.426 150.2C197.293 150.733 195.06 151.05 194.726 151.15C194.093 151.717 192.926 153.417 191.226 156.25C189.526 159.05 188.676 161.1 188.676 162.4C188.676 163.633 189.526 164.25 191.226 164.25C192.026 164.25 193.076 164 194.376 163.5C195.676 163 196.676 162.533 197.376 162.1C199.243 160.933 201.243 159.217 203.376 156.95C203.843 156.483 204.16 156.25 204.326 156.25C204.426 156.25 204.476 156.35 204.476 156.55C204.476 156.75 204.226 157.15 203.726 157.75C201.993 159.883 200.043 161.6 197.876 162.9C195.276 164.5 192.793 165.3 190.426 165.3C189.393 165.3 188.543 165.083 187.876 164.65C187.243 164.183 186.926 163.267 186.926 161.9C186.926 160.533 187.526 158.667 188.726 156.3C189.926 153.9 190.843 152.117 191.476 150.95C191.01 151.05 190.61 151.1 190.276 151.1C189.31 151.1 188.826 150.717 188.826 149.95C188.826 149.383 189.226 148.983 190.026 148.75C190.126 148.75 190.276 148.733 190.476 148.7H193.376C193.976 147.933 194.66 147.05 195.426 146.05C196.36 144.85 196.993 144.25 197.326 144.25C197.66 144.25 198.076 144.383 198.576 144.65C199.076 144.917 199.326 145.233 199.326 145.6C199.326 145.967 198.526 147.05 196.926 148.85C197.793 148.883 198.926 148.9 200.326 148.9ZM213.97 164.8C212.003 164.8 211.02 163.65 211.02 161.35C211.02 160.05 211.47 158.617 212.37 157.05C213.303 155.45 214.437 153.583 215.77 151.45C211.503 153.583 207.637 156.733 204.17 160.9C202.237 163.8 201.103 165.25 200.77 165.25C199.803 165.25 199.32 164.967 199.32 164.4C199.32 164.1 199.52 163.567 199.92 162.8C203.153 157.033 205.603 152.817 207.27 150.15C211.237 143.783 214.037 140.333 215.67 139.8C215.737 139.767 215.803 139.75 215.87 139.75C216.303 139.75 216.603 140.1 216.77 140.8C216.67 141.5 214.937 144.033 211.57 148.4C208.07 152.833 206.087 155.733 205.62 157.1C206.853 156.2 209.003 154.683 212.07 152.55C215.37 150.25 217.553 149.1 218.62 149.1C219.687 149.1 220.22 149.517 220.22 150.35C220.22 150.483 220.203 150.583 220.17 150.65C220.17 150.683 219.02 152.25 216.72 155.35C214.42 158.45 213.27 160.733 213.27 162.2C213.27 162.967 213.553 163.35 214.12 163.35C215.92 163.283 218.62 161.117 222.22 156.85C222.52 156.55 222.737 156.4 222.87 156.4C223.037 156.4 223.12 156.5 223.12 156.7C223.12 157.367 221.47 159.167 218.17 162.1C216.103 163.9 214.703 164.8 213.97 164.8Z" fill="black"/>
<g clip-path="url(#clip1)">
<path d="M151.938 49.3704C151.366 43.5938 146.957 39.2007 141.675 39.145H141.654C141.283 39.146 140.913 39.1687 140.544 39.2128C138.273 31.3432 130.633 26.9882 123.479 29.4858C119.201 30.9793 115.869 34.6998 114.576 39.4277C113.837 39.2463 113.082 39.1553 112.324 39.1563C106.567 39.2169 101.945 44.3997 102 50.7324C102.051 56.5428 106.045 61.3931 111.296 62.0218V73.1832H142.703V62.0105C148.426 61.3252 152.561 55.6661 151.938 49.3704Z" fill="black"/>
<path d="M141.675 75.4336H111.307V81.0878C111.307 81.7123 111.767 82.2186 112.335 82.2186H141.685C142.253 82.2186 142.713 81.7123 142.713 81.0878V75.4336H141.675Z" fill="black"/>
</g>
<path d="M147.84 94.7012C146.75 90.7866 143.094 87.9429 138.801 88.1183C135.237 88.266 132.162 90.5557 130.861 93.7225C129.891 93.104 128.737 92.7347 127.5 92.7347C126.263 92.7347 125.118 93.0947 124.149 93.7133C122.81 90.4265 119.578 88.0999 115.821 88.0999C111.694 88.0999 108.222 90.8881 107.16 94.6827C106.994 95.2829 106.44 95.6891 105.822 95.6891H105V98.5051H105.822C106.44 98.5051 106.994 98.9113 107.16 99.5022C108.25 103.417 111.906 106.261 116.199 106.085C120.668 105.9 124.361 102.346 124.767 97.9234C125.192 96.834 126.254 96.0492 127.5 96.0492C128.728 96.0492 129.78 96.8063 130.214 97.8772C130.611 102.475 134.48 106.094 139.179 106.094C143.306 106.094 146.778 103.306 147.84 99.5114C148.006 98.9113 148.56 98.5051 149.178 98.5051H150V95.6891H149.178C148.56 95.6983 148.006 95.2921 147.84 94.7012ZM115.821 103.371C112.368 103.371 109.561 100.564 109.561 97.1109C109.561 93.6579 112.368 90.8512 115.821 90.8512C119.274 90.8512 122.08 93.6579 122.08 97.1109C122.08 100.564 119.274 103.371 115.821 103.371ZM139.179 103.371C135.726 103.371 132.92 100.564 132.92 97.1109C132.92 93.6579 135.726 90.8512 139.179 90.8512C142.632 90.8512 145.439 93.6579 145.439 97.1109C145.439 100.564 142.632 103.371 139.179 103.371ZM149.548 113.748C148.449 117.127 145.633 122.528 138.718 122.879C133.215 123.156 129.43 120.645 127.5 117.875C125.57 120.645 121.776 123.156 116.282 122.879C109.367 122.528 106.542 117.118 105.452 113.748C105.369 113.471 104.972 112.059 106.173 112.816C106.302 112.917 106.431 113.019 106.579 113.111C107.29 113.573 108.25 113.942 109.542 114.007C113.282 114.191 116.559 107.775 121.794 108.033C123.133 108.098 124.989 108.421 127.491 110.914C129.993 108.421 131.839 108.098 133.187 108.033C138.422 107.775 141.7 114.191 145.439 114.007C146.732 113.942 147.692 113.573 148.403 113.111C148.55 113.019 148.689 112.917 148.818 112.816C150.028 112.059 149.64 113.462 149.548 113.748Z" fill="black"/>
</g>
<defs>
<clipPath id="clip0">
<rect width="257" height="198" fill="white"/>
</clipPath>
<clipPath id="clip1">
<rect width="50" height="55" fill="white" transform="translate(102 28)"/>
</clipPath>
</defs>
</svg>
