<svg width="257" height="234" viewBox="0 0 257 234" fill="none" xmlns="http://www.w3.org/2000/svg">
<g clip-path="url(#clip0)">
<rect width="257" height="234" fill="white"/>
<path d="M63.1311 153.1C61.1311 153.1 59.4477 152.65 58.0811 151.75C56.7144 150.817 56.0311 149.65 56.0311 148.25C56.0311 146.483 57.1811 144.717 59.4811 142.95C59.8811 142.65 60.1811 142.5 60.3811 142.5C60.5811 142.5 60.6811 142.567 60.6811 142.7C60.6811 143.033 60.4144 143.3 59.8811 143.5C58.0144 145 57.0811 146.517 57.0811 148.05C57.0811 149.15 57.5811 150.083 58.5811 150.85C59.5811 151.583 60.8311 151.95 62.3311 151.95C65.5977 151.95 68.6811 150.383 71.5811 147.25C73.0811 145.617 73.8311 143.733 73.8311 141.6C73.8311 139.467 73.0311 137.883 71.4311 136.85C70.0977 135.917 68.2977 135.45 66.0311 135.45C62.7644 135.45 59.4811 136.267 56.1811 137.9C52.1144 139.867 48.4311 142.933 45.1311 147.1C41.8644 151.233 40.2311 155.217 40.2311 159.05C40.2311 162.083 41.2644 164.433 43.3311 166.1C45.3977 167.733 47.9644 168.55 51.0311 168.55C54.5311 168.55 57.9644 167.7 61.3311 166C63.8977 164.667 66.1144 162.967 67.9811 160.9C68.5144 160.3 68.9311 160 69.2311 160C69.4311 160 69.5311 160.183 69.5311 160.55C69.5311 160.883 69.3477 161.233 68.9811 161.6C67.2144 163.467 64.6644 165.267 61.3311 167C57.2311 169.167 53.0977 170.25 48.9311 170.25C44.7977 170.25 41.7144 168.883 39.6811 166.15C38.3144 164.35 37.6311 162.2 37.6311 159.7C37.6311 158.6 37.7644 157.417 38.0311 156.15C38.9311 151.883 41.2977 147.733 45.1311 143.7C47.8977 140.8 51.1811 138.55 54.9811 136.95C58.7811 135.317 62.3811 134.5 65.7811 134.5C67.5811 134.5 69.1477 134.717 70.4811 135.15C74.1144 136.283 75.9311 138.567 75.9311 142C75.9311 144.1 75.3144 145.917 74.0811 147.45C71.0144 151.217 67.3644 153.1 63.1311 153.1ZM89.0104 152.05L89.7104 151.9C90.077 151.9 90.427 152.05 90.7604 152.35C91.0937 152.65 91.2604 152.883 91.2604 153.05C91.2604 153.217 90.227 154.833 88.1604 157.9C86.0937 160.933 85.0604 163.05 85.0604 164.25C85.0604 164.35 85.077 164.45 85.1104 164.55C85.277 165.317 85.6437 165.7 86.2104 165.7C87.9437 165.7 91.1104 162.833 95.7104 157.1C95.8104 156.967 95.927 156.9 96.0604 156.9C96.1937 156.9 96.2604 157.033 96.2604 157.3C96.2604 157.533 96.1104 157.85 95.8104 158.25C91.5437 163.95 88.2937 166.8 86.0604 166.8C85.7604 166.8 85.477 166.75 85.2104 166.65C83.7437 166.083 83.0104 164.983 83.0104 163.35C83.0104 162.783 83.077 162.217 83.2104 161.65L80.1104 164.65C78.1437 166.383 76.7104 167.25 75.8104 167.25C74.9437 167.25 74.1104 166.967 73.3104 166.4C72.4104 165.733 71.9604 164.85 71.9604 163.75C71.9604 161.317 73.6604 158.417 77.0604 155.05C80.4604 151.65 83.577 149.95 86.4104 149.95C87.5104 149.95 88.2437 150.333 88.6104 151.1C88.7104 151.367 88.7937 151.6 88.8604 151.8C88.927 151.967 88.977 152.05 89.0104 152.05ZM74.0604 164.35C74.0604 165.55 74.477 166.15 75.3104 166.15C77.2437 166.15 79.877 164.033 83.2104 159.8L88.5104 152.5C88.2437 152.033 87.8104 151.8 87.2104 151.8C85.177 151.8 82.477 153.383 79.1104 156.55C75.7437 159.683 74.0604 162.283 74.0604 164.35ZM103.216 167.6C100.582 167.6 98.3492 165.517 96.5158 161.35C96.0492 162.05 94.9992 164.017 93.3658 167.25C92.1658 166.783 91.5658 166.15 91.5658 165.35C91.5658 163.917 93.7158 159.983 98.0158 153.55C102.316 147.117 105.266 143.333 106.866 142.2C106.999 142.1 107.266 142.05 107.666 142.05C108.699 142.05 109.216 142.317 109.216 142.85C109.216 143.117 108.049 144.617 105.716 147.35C103.416 150.083 102.132 151.733 101.866 152.3C104.899 150.733 107.316 149.95 109.116 149.95C110.149 149.95 111.032 150.367 111.766 151.2C112.466 151.9 112.816 152.617 112.816 153.35C112.816 153.45 112.816 153.55 112.816 153.65C112.549 155.55 111.216 157.117 108.816 158.35C106.882 159.383 105.082 159.9 103.416 159.9C101.749 159.9 100.582 159.683 99.9158 159.25C99.7158 159.217 99.5492 159.267 99.4158 159.4C99.3158 159.533 99.2992 159.7 99.3658 159.9C100.299 164.033 101.849 166.1 104.016 166.1C105.149 166.1 106.599 165.467 108.366 164.2C110.166 162.933 112.032 161.15 113.966 158.85C114.199 158.617 114.399 158.5 114.566 158.5C114.766 158.5 114.866 158.6 114.866 158.8C114.866 158.967 114.749 159.217 114.516 159.55C112.716 161.75 111.016 163.483 109.416 164.75C106.982 166.65 104.916 167.6 103.216 167.6ZM110.416 152.3C110.416 152.033 110.266 151.767 109.966 151.5C109.666 151.233 109.349 151.1 109.016 151.1C107.216 151.1 105.049 151.85 102.516 153.35C100.016 154.85 98.4825 156.55 97.9158 158.45C98.2158 158.45 99.0158 158.5 100.316 158.6C101.816 158.6 103.782 157.983 106.216 156.75C109.016 155.35 110.416 153.867 110.416 152.3ZM115.194 167.65C114.827 167.65 114.494 167.6 114.194 167.5C112.06 166.9 110.994 165.7 110.994 163.9C110.994 161.567 112.46 158.867 115.394 155.8C118.327 152.733 120.96 151.2 123.294 151.2C124.06 151.2 124.677 151.417 125.144 151.85C125.644 152.25 125.894 152.75 125.894 153.35C125.894 155.217 124.477 157 121.644 158.7C118.844 160.4 116.56 161.25 114.794 161.25C114.527 161.25 114.294 161.217 114.094 161.15C113.594 162.05 113.344 163 113.344 164C113.344 165.733 114.16 166.6 115.794 166.6C117.46 166.6 119.61 165.483 122.244 163.25C124.277 161.617 126.01 159.883 127.444 158.05C127.744 157.65 127.994 157.45 128.194 157.45C128.427 157.45 128.544 157.55 128.544 157.75C128.544 157.95 128.41 158.233 128.144 158.6C126.344 160.967 124.177 163.067 121.644 164.9C119.11 166.733 116.96 167.65 115.194 167.65ZM124.644 153.25C124.644 152.85 124.21 152.65 123.344 152.65C122.51 152.65 121.31 153.3 119.744 154.6C117.644 156.333 116.01 158.15 114.844 160.05C115.044 160.117 115.26 160.15 115.494 160.15C116.76 160.15 118.444 159.483 120.544 158.15C122.677 156.783 124.01 155.3 124.544 153.7C124.61 153.533 124.644 153.383 124.644 153.25ZM134.685 166.25C133.719 166.817 132.519 167.1 131.085 167.1C129.685 167.1 128.602 166.633 127.835 165.7C127.102 164.767 126.469 163.283 125.935 161.25C125.335 161.85 124.919 162.15 124.685 162.15C124.519 162.15 124.435 162.033 124.435 161.8C124.435 161.567 124.519 161.367 124.685 161.2C125.785 159.833 127.652 157.867 130.285 155.3L136.585 149.4C138.385 147.7 139.452 146.85 139.785 146.85C140.852 146.85 141.385 147.25 141.385 148.05C141.385 148.45 141.219 148.85 140.885 149.25C140.585 149.617 140.352 149.917 140.185 150.15C140.052 150.35 139.902 150.55 139.735 150.75C139.135 151.783 138.519 153.917 137.885 157.15C137.285 160.383 136.819 162.633 136.485 163.9C139.252 163.867 142.102 162.067 145.035 158.5C145.369 158.167 145.619 158 145.785 158C145.952 158 146.035 158.117 146.035 158.35C146.035 158.55 145.885 158.833 145.585 159.2C143.652 161.467 141.852 163.05 140.185 163.95C139.185 164.45 137.885 164.867 136.285 165.2L134.685 166.25ZM127.935 160.7C127.935 161.833 128.302 162.767 129.035 163.5C129.802 164.2 130.652 164.55 131.585 164.55C132.519 164.55 133.235 164.367 133.735 164C134.402 163.633 135.052 162.1 135.685 159.4C136.352 156.7 136.752 154.317 136.885 152.25L137.085 150.55C135.252 151.917 133.285 153.683 131.185 155.85C129.119 158.017 128.052 159.45 127.985 160.15C127.952 160.35 127.935 160.533 127.935 160.7ZM167.354 166.4C165.087 166.4 163.954 165.35 163.954 163.25C163.954 162.05 164.487 160.417 165.554 158.35C166.621 156.25 167.737 154.483 168.904 153.05C166.837 154.05 164.454 155.867 161.754 158.5C159.054 161.1 157.171 163.833 156.104 166.7C155.937 166.967 155.654 167.1 155.254 167.1C154.454 167.1 154.054 166.65 154.054 165.75C154.387 163.917 155.137 161.817 156.304 159.45C156.671 158.683 157.754 156.45 159.554 152.75C156.954 154.45 154.737 156.283 152.904 158.25C151.104 160.183 149.421 162.133 147.854 164.1C146.321 166.067 145.454 167.05 145.254 167.05C144.821 167.05 144.437 166.85 144.104 166.45C143.804 166.05 143.654 165.65 143.654 165.25C143.654 164.65 144.521 162.45 146.254 158.65L143.254 161.8C142.521 162.533 142.071 162.9 141.904 162.9C141.704 162.9 141.604 162.8 141.604 162.6C141.604 162.367 141.737 162.117 142.004 161.85C143.237 160.617 144.337 159.383 145.304 158.15C146.271 156.917 147.871 154.717 150.104 151.55C150.471 151.05 150.987 150.8 151.654 150.8C152.321 150.8 152.654 151.117 152.654 151.75C152.654 151.983 151.771 153.617 150.004 156.65C148.237 159.65 147.254 161.533 147.054 162.3C148.421 160.8 150.471 158.783 153.204 156.25C157.304 152.45 160.004 150.55 161.304 150.55C161.704 150.55 162.071 150.667 162.404 150.9C162.737 151.133 162.904 151.4 162.904 151.7C162.904 151.967 162.254 153.217 160.954 155.45C159.687 157.75 158.987 159.117 158.854 159.55C162.554 156.45 164.404 154.883 164.404 154.85C167.537 152.417 169.787 151.2 171.154 151.2C171.554 151.2 171.921 151.333 172.254 151.6C172.621 151.833 172.804 152.117 172.804 152.45C172.804 152.517 171.721 153.933 169.554 156.7C167.387 159.433 166.171 161.683 165.904 163.45C165.837 164.05 165.954 164.5 166.254 164.8C166.554 165.1 167.087 165.25 167.854 165.25C168.654 165.25 169.804 164.717 171.304 163.65C172.837 162.55 174.387 161.083 175.954 159.25C176.554 158.583 176.954 158.25 177.154 158.25C177.387 158.25 177.504 158.333 177.504 158.5C177.504 158.733 177.354 159 177.054 159.3C175.421 161.267 173.654 162.95 171.754 164.35C169.887 165.717 168.421 166.4 167.354 166.4ZM185.847 146.6C186.347 146.6 186.814 146.767 187.247 147.1C187.714 147.4 187.947 147.767 187.947 148.2C187.947 148.633 187.73 149.017 187.297 149.35C186.897 149.65 186.447 149.8 185.947 149.8C185.447 149.8 184.98 149.617 184.547 149.25C184.147 148.883 183.947 148.467 183.947 148C183.947 147.067 184.58 146.6 185.847 146.6ZM176.797 167.55C175.097 167.55 174.247 166.45 174.247 164.25C174.247 162.45 175.23 159.967 177.197 156.8C179.164 153.6 180.747 151.983 181.947 151.95C182.28 151.95 182.647 152.083 183.047 152.35C183.48 152.617 183.697 152.883 183.697 153.15C183.53 153.383 183.33 153.65 183.097 153.95C182.864 154.217 182.614 154.517 182.347 154.85C182.08 155.183 181.714 155.667 181.247 156.3C180.78 156.9 180.33 157.483 179.897 158.05C177.397 161.283 176.147 163.517 176.147 164.75C176.147 165.95 176.564 166.55 177.397 166.55C178.097 166.55 179.047 166.167 180.247 165.4C183.047 163.667 185.264 161.767 186.897 159.7C187.497 158.933 187.897 158.55 188.097 158.55C188.33 158.55 188.447 158.683 188.447 158.95C188.447 159.217 188.064 159.75 187.297 160.55C186.53 161.35 185.914 161.983 185.447 162.45C185.014 162.917 184.714 163.233 184.547 163.4C184.38 163.533 184.064 163.817 183.597 164.25C183.164 164.65 182.83 164.933 182.597 165.1C182.364 165.267 182.03 165.517 181.597 165.85C181.164 166.183 180.78 166.433 180.447 166.6C180.114 166.733 179.73 166.9 179.297 167.1C178.597 167.4 177.764 167.55 176.797 167.55ZM199.326 150.9L206.526 150.8C206.626 150.867 206.676 150.917 206.676 150.95C206.676 151.25 204.593 151.667 200.426 152.2C196.293 152.733 194.06 153.05 193.726 153.15C193.093 153.717 191.926 155.417 190.226 158.25C188.526 161.05 187.676 163.1 187.676 164.4C187.676 165.633 188.526 166.25 190.226 166.25C191.026 166.25 192.076 166 193.376 165.5C194.676 165 195.676 164.533 196.376 164.1C198.243 162.933 200.243 161.217 202.376 158.95C202.843 158.483 203.16 158.25 203.326 158.25C203.426 158.25 203.476 158.35 203.476 158.55C203.476 158.75 203.226 159.15 202.726 159.75C200.993 161.883 199.043 163.6 196.876 164.9C194.276 166.5 191.793 167.3 189.426 167.3C188.393 167.3 187.543 167.083 186.876 166.65C186.243 166.183 185.926 165.267 185.926 163.9C185.926 162.533 186.526 160.667 187.726 158.3C188.926 155.9 189.843 154.117 190.476 152.95C190.01 153.05 189.61 153.1 189.276 153.1C188.31 153.1 187.826 152.717 187.826 151.95C187.826 151.383 188.226 150.983 189.026 150.75C189.126 150.75 189.276 150.733 189.476 150.7H192.376C192.976 149.933 193.66 149.05 194.426 148.05C195.36 146.85 195.993 146.25 196.326 146.25C196.66 146.25 197.076 146.383 197.576 146.65C198.076 146.917 198.326 147.233 198.326 147.6C198.326 147.967 197.526 149.05 195.926 150.85C196.793 150.883 197.926 150.9 199.326 150.9ZM212.97 166.8C211.003 166.8 210.02 165.65 210.02 163.35C210.02 162.05 210.47 160.617 211.37 159.05C212.303 157.45 213.437 155.583 214.77 153.45C210.503 155.583 206.637 158.733 203.17 162.9C201.237 165.8 200.103 167.25 199.77 167.25C198.803 167.25 198.32 166.967 198.32 166.4C198.32 166.1 198.52 165.567 198.92 164.8C202.153 159.033 204.603 154.817 206.27 152.15C210.237 145.783 213.037 142.333 214.67 141.8C214.737 141.767 214.803 141.75 214.87 141.75C215.303 141.75 215.603 142.1 215.77 142.8C215.67 143.5 213.937 146.033 210.57 150.4C207.07 154.833 205.087 157.733 204.62 159.1C205.853 158.2 208.003 156.683 211.07 154.55C214.37 152.25 216.553 151.1 217.62 151.1C218.687 151.1 219.22 151.517 219.22 152.35C219.22 152.483 219.203 152.583 219.17 152.65C219.17 152.683 218.02 154.25 215.72 157.35C213.42 160.45 212.27 162.733 212.27 164.2C212.27 164.967 212.553 165.35 213.12 165.35C214.92 165.283 217.62 163.117 221.22 158.85C221.52 158.55 221.737 158.4 221.87 158.4C222.037 158.4 222.12 158.5 222.12 158.7C222.12 159.367 220.47 161.167 217.17 164.1C215.103 165.9 213.703 166.8 212.97 166.8Z" fill="black"/>
<path d="M75.821 177.72H76.877L78.477 181.752L80.093 177.72H81.165L79.181 182.568L81.357 187.704L85.469 177.64H86.685L81.869 189H80.877L78.493 183.384L76.093 189H75.117L70.317 177.64H71.517L75.645 187.704L77.805 182.568L75.821 177.72ZM90.5813 189.16C89.7813 189.16 89.0666 188.963 88.4373 188.568C87.8079 188.173 87.3119 187.645 86.9493 186.984C86.5866 186.323 86.4053 185.597 86.4053 184.808C86.4053 184.029 86.5813 183.315 86.9333 182.664C87.2959 182.013 87.7919 181.496 88.4213 181.112C89.0506 180.717 89.7653 180.52 90.5653 180.52C91.3866 180.52 92.1066 180.717 92.7253 181.112C93.3439 181.507 93.8239 182.029 94.1653 182.68C94.5173 183.32 94.6933 184.024 94.6933 184.792C94.6933 184.963 94.6879 185.107 94.6773 185.224H87.5413C87.5946 185.821 87.7653 186.355 88.0533 186.824C88.3413 187.283 88.7093 187.651 89.1573 187.928C89.6053 188.195 90.0959 188.328 90.6293 188.328C91.1733 188.328 91.6853 188.189 92.1653 187.912C92.6453 187.635 92.9866 187.272 93.1893 186.824L94.1333 187.08C93.9626 187.485 93.6959 187.848 93.3333 188.168C92.9813 188.477 92.5706 188.723 92.1013 188.904C91.6319 189.075 91.1253 189.16 90.5813 189.16ZM87.5093 184.44H93.6693C93.6266 183.843 93.4613 183.315 93.1733 182.856C92.8853 182.387 92.5173 182.024 92.0693 181.768C91.6213 181.501 91.1253 181.368 90.5813 181.368C90.0373 181.368 89.5413 181.501 89.0933 181.768C88.6453 182.024 88.2773 182.387 87.9893 182.856C87.7119 183.315 87.5519 183.843 87.5093 184.44ZM104.53 189.16C103.879 189.16 103.277 188.995 102.722 188.664C102.167 188.323 101.735 187.896 101.426 187.384V189H100.45V177.32H101.538V182.408C101.911 181.843 102.359 181.389 102.882 181.048C103.405 180.696 104.013 180.52 104.706 180.52C105.293 180.52 105.815 180.643 106.274 180.888C106.743 181.133 107.143 181.464 107.474 181.88C107.805 182.285 108.055 182.749 108.226 183.272C108.397 183.784 108.482 184.312 108.482 184.856C108.482 185.635 108.306 186.349 107.954 187C107.613 187.651 107.143 188.173 106.546 188.568C105.949 188.963 105.277 189.16 104.53 189.16ZM104.274 188.2C104.882 188.2 105.415 188.04 105.874 187.72C106.343 187.4 106.711 186.989 106.978 186.488C107.245 185.976 107.378 185.432 107.378 184.856C107.378 184.269 107.25 183.72 106.994 183.208C106.749 182.696 106.402 182.28 105.954 181.96C105.506 181.64 104.989 181.48 104.402 181.48C103.751 181.48 103.175 181.688 102.674 182.104C102.183 182.52 101.805 183.005 101.538 183.56V186.152C101.591 186.536 101.767 186.883 102.066 187.192C102.365 187.501 102.717 187.747 103.122 187.928C103.527 188.109 103.911 188.2 104.274 188.2ZM109.653 186.6C109.653 186.088 109.802 185.645 110.101 185.272C110.4 184.888 110.81 184.589 111.333 184.376C111.866 184.163 112.48 184.056 113.173 184.056C113.578 184.056 114 184.093 114.437 184.168C114.874 184.232 115.264 184.323 115.605 184.44V183.736C115.605 183.032 115.397 182.472 114.981 182.056C114.565 181.64 113.989 181.432 113.253 181.432C112.816 181.432 112.378 181.517 111.941 181.688C111.504 181.848 111.05 182.088 110.581 182.408L110.165 181.64C110.709 181.267 111.242 180.989 111.765 180.808C112.288 180.616 112.821 180.52 113.365 180.52C114.389 180.52 115.2 180.813 115.797 181.4C116.394 181.987 116.693 182.797 116.693 183.832V187.688C116.693 187.976 116.826 188.125 117.093 188.136V189C116.858 189.032 116.693 189.043 116.597 189.032C116.33 189.021 116.128 188.936 115.989 188.776C115.85 188.616 115.776 188.445 115.765 188.264L115.749 187.656C115.376 188.136 114.89 188.509 114.293 188.776C113.696 189.032 113.088 189.16 112.469 189.16C111.925 189.16 111.44 189.048 111.013 188.824C110.586 188.589 110.25 188.28 110.005 187.896C109.77 187.501 109.653 187.069 109.653 186.6ZM115.237 187.24C115.482 186.952 115.605 186.685 115.605 186.44V185.224C114.869 184.936 114.101 184.792 113.301 184.792C112.522 184.792 111.893 184.947 111.413 185.256C110.933 185.565 110.693 185.987 110.693 186.52C110.693 186.979 110.869 187.395 111.221 187.768C111.584 188.141 112.085 188.328 112.725 188.328C113.248 188.328 113.733 188.227 114.181 188.024C114.64 187.821 114.992 187.56 115.237 187.24ZM124.996 189L121.908 184.728L120.132 186.392V189H119.044V177.32H120.132V185.224L124.852 180.68H126.052L122.644 184.088L126.18 189H124.996ZM130.691 189.16C129.891 189.16 129.176 188.963 128.547 188.568C127.917 188.173 127.421 187.645 127.059 186.984C126.696 186.323 126.515 185.597 126.515 184.808C126.515 184.029 126.691 183.315 127.043 182.664C127.405 182.013 127.901 181.496 128.531 181.112C129.16 180.717 129.875 180.52 130.675 180.52C131.496 180.52 132.216 180.717 132.835 181.112C133.453 181.507 133.933 182.029 134.275 182.68C134.627 183.32 134.803 184.024 134.803 184.792C134.803 184.963 134.797 185.107 134.787 185.224H127.651C127.704 185.821 127.875 186.355 128.163 186.824C128.451 187.283 128.819 187.651 129.267 187.928C129.715 188.195 130.205 188.328 130.739 188.328C131.283 188.328 131.795 188.189 132.275 187.912C132.755 187.635 133.096 187.272 133.299 186.824L134.243 187.08C134.072 187.485 133.805 187.848 133.443 188.168C133.091 188.477 132.68 188.723 132.211 188.904C131.741 189.075 131.235 189.16 130.691 189.16ZM127.619 184.44H133.779C133.736 183.843 133.571 183.315 133.283 182.856C132.995 182.387 132.627 182.024 132.179 181.768C131.731 181.501 131.235 181.368 130.691 181.368C130.147 181.368 129.651 181.501 129.203 181.768C128.755 182.024 128.387 182.387 128.099 182.856C127.821 183.315 127.661 183.843 127.619 184.44ZM140.559 178.92V177.32H141.647V178.92H140.559ZM140.559 189V180.664H141.647V189H140.559ZM148.044 188.6C147.916 188.653 147.681 188.749 147.34 188.888C146.998 189.027 146.604 189.096 146.156 189.096C145.686 189.096 145.276 188.963 144.924 188.696C144.572 188.429 144.396 188.029 144.396 187.496V181.528H143.244V180.664H144.396V177.848H145.484V180.664H147.404V181.528H145.484V187.192C145.505 187.501 145.612 187.731 145.804 187.88C146.006 188.019 146.236 188.088 146.492 188.088C146.79 188.088 147.057 188.04 147.292 187.944C147.537 187.837 147.692 187.763 147.756 187.72L148.044 188.6ZM157.641 181.624C156.916 181.645 156.276 181.848 155.721 182.232C155.177 182.616 154.793 183.144 154.569 183.816V189H153.481V180.664H154.505V182.664C154.793 182.077 155.172 181.603 155.641 181.24C156.121 180.877 156.628 180.675 157.161 180.632C157.268 180.621 157.359 180.616 157.433 180.616C157.508 180.616 157.577 180.621 157.641 180.632V181.624ZM159.091 178.92V177.32H160.179V178.92H159.091ZM159.091 189V180.664H160.179V189H159.091ZM165.919 189.112C165.343 189.112 164.815 188.995 164.335 188.76C163.866 188.525 163.455 188.211 163.103 187.816C162.762 187.411 162.495 186.952 162.303 186.44C162.111 185.928 162.015 185.4 162.015 184.856C162.015 184.077 162.18 183.363 162.511 182.712C162.842 182.051 163.295 181.523 163.871 181.128C164.458 180.723 165.13 180.52 165.887 180.52C166.602 180.52 167.22 180.701 167.743 181.064C168.276 181.427 168.724 181.875 169.087 182.408V180.664H170.063V189.032C170.063 189.811 169.876 190.461 169.503 190.984C169.13 191.507 168.634 191.901 168.015 192.168C167.396 192.435 166.719 192.568 165.983 192.568C165.023 192.568 164.25 192.397 163.663 192.056C163.087 191.715 162.612 191.256 162.239 190.68L162.911 190.152C163.242 190.675 163.679 191.064 164.223 191.32C164.778 191.576 165.364 191.704 165.983 191.704C166.527 191.704 167.023 191.603 167.471 191.4C167.93 191.208 168.292 190.915 168.559 190.52C168.836 190.125 168.975 189.629 168.975 189.032V187.384C168.655 187.907 168.218 188.328 167.663 188.648C167.108 188.957 166.527 189.112 165.919 189.112ZM166.223 188.2C166.66 188.2 167.076 188.099 167.471 187.896C167.866 187.693 168.196 187.437 168.463 187.128C168.74 186.808 168.911 186.477 168.975 186.136V183.56C168.815 183.155 168.586 182.797 168.287 182.488C167.988 182.168 167.647 181.923 167.263 181.752C166.879 181.571 166.49 181.48 166.095 181.48C165.476 181.48 164.943 181.651 164.495 181.992C164.058 182.323 163.716 182.749 163.471 183.272C163.236 183.784 163.119 184.317 163.119 184.872C163.119 185.469 163.258 186.024 163.535 186.536C163.812 187.037 164.186 187.443 164.655 187.752C165.124 188.051 165.647 188.2 166.223 188.2ZM179.474 189H178.386V184.344C178.386 182.456 177.746 181.512 176.466 181.512C176.05 181.512 175.644 181.619 175.25 181.832C174.855 182.035 174.503 182.317 174.194 182.68C173.895 183.032 173.682 183.437 173.554 183.896V189H172.466V177.32H173.554V182.552C173.884 181.933 174.343 181.443 174.93 181.08C175.527 180.707 176.162 180.52 176.834 180.52C177.474 180.52 177.986 180.675 178.37 180.984C178.754 181.283 179.031 181.704 179.202 182.248C179.383 182.781 179.474 183.405 179.474 184.12V189ZM185.716 188.6C185.588 188.653 185.353 188.749 185.012 188.888C184.67 189.027 184.276 189.096 183.828 189.096C183.358 189.096 182.948 188.963 182.596 188.696C182.244 188.429 182.068 188.029 182.068 187.496V181.528H180.916V180.664H182.068V177.848H183.156V180.664H185.076V181.528H183.156V187.192C183.177 187.501 183.284 187.731 183.476 187.88C183.678 188.019 183.908 188.088 184.164 188.088C184.462 188.088 184.729 188.04 184.964 187.944C185.209 187.837 185.364 187.763 185.428 187.72L185.716 188.6Z" fill="black"/>
<g clip-path="url(#clip1)">
<path d="M152.938 54.3704C152.366 48.5938 147.957 44.2007 142.675 44.145H142.654C142.283 44.146 141.913 44.1687 141.544 44.2128C139.273 36.3432 131.633 31.9882 124.479 34.4858C120.201 35.9793 116.869 39.6998 115.576 44.4277C114.837 44.2463 114.082 44.1553 113.324 44.1563C107.567 44.2169 102.945 49.3997 103 55.7324C103.051 61.5428 107.045 66.3931 112.296 67.0218V78.1832H143.703V67.0105C149.426 66.3252 153.561 60.6661 152.938 54.3704Z" fill="black"/>
<path d="M142.675 80.4336H112.307V86.0878C112.307 86.7123 112.767 87.2186 113.335 87.2186H142.685C143.253 87.2186 143.713 86.7123 143.713 86.0878V80.4336H142.675Z" fill="black"/>
</g>
<path d="M148.84 99.7012C147.75 95.7866 144.094 92.9429 139.801 93.1183C136.237 93.266 133.162 95.5557 131.861 98.7225C130.891 98.104 129.737 97.7347 128.5 97.7347C127.263 97.7347 126.118 98.0947 125.149 98.7133C123.81 95.4265 120.578 93.0999 116.821 93.0999C112.694 93.0999 109.222 95.8881 108.16 99.6827C107.994 100.283 107.44 100.689 106.822 100.689H106V103.505H106.822C107.44 103.505 107.994 103.911 108.16 104.502C109.25 108.417 112.906 111.261 117.199 111.085C121.668 110.9 125.361 107.346 125.767 102.923C126.192 101.834 127.254 101.049 128.5 101.049C129.728 101.049 130.78 101.806 131.214 102.877C131.611 107.475 135.48 111.094 140.179 111.094C144.306 111.094 147.778 108.306 148.84 104.511C149.006 103.911 149.56 103.505 150.178 103.505H151V100.689H150.178C149.56 100.698 149.006 100.292 148.84 99.7012ZM116.821 108.371C113.368 108.371 110.561 105.564 110.561 102.111C110.561 98.6579 113.368 95.8512 116.821 95.8512C120.274 95.8512 123.08 98.6579 123.08 102.111C123.08 105.564 120.274 108.371 116.821 108.371ZM140.179 108.371C136.726 108.371 133.92 105.564 133.92 102.111C133.92 98.6579 136.726 95.8512 140.179 95.8512C143.632 95.8512 146.439 98.6579 146.439 102.111C146.439 105.564 143.632 108.371 140.179 108.371ZM150.548 118.748C149.449 122.127 146.633 127.528 139.718 127.879C134.215 128.156 130.43 125.645 128.5 122.875C126.57 125.645 122.776 128.156 117.282 127.879C110.367 127.528 107.542 122.118 106.452 118.748C106.369 118.471 105.972 117.059 107.173 117.816C107.302 117.917 107.431 118.019 107.579 118.111C108.29 118.573 109.25 118.942 110.542 119.007C114.282 119.191 117.559 112.775 122.794 113.033C124.133 113.098 125.989 113.421 128.491 115.914C130.993 113.421 132.839 113.098 134.187 113.033C139.422 112.775 142.7 119.191 146.439 119.007C147.732 118.942 148.692 118.573 149.403 118.111C149.55 118.019 149.689 117.917 149.818 117.816C151.028 117.059 150.64 118.462 150.548 118.748Z" fill="black"/>
</g>
<defs>
<clipPath id="clip0">
<rect width="257" height="234" fill="white"/>
</clipPath>
<clipPath id="clip1">
<rect width="50" height="55" fill="white" transform="translate(103 33)"/>
</clipPath>
</defs>
</svg>
